<?xml version="1.0" encoding="UTF-8" standalone="no"?>
<svg
   xmlns:dc="http://purl.org/dc/elements/1.1/"
   xmlns:cc="http://creativecommons.org/ns#"
   xmlns:rdf="http://www.w3.org/1999/02/22-rdf-syntax-ns#"
   xmlns:svg="http://www.w3.org/2000/svg"
   xmlns="http://www.w3.org/2000/svg"
   xmlns:sodipodi="http://sodipodi.sourceforge.net/DTD/sodipodi-0.dtd"
   xmlns:inkscape="http://www.inkscape.org/namespaces/inkscape"
   height="87.085716mm"
   width="91.117462mm"
   id="svg4357"
   version="1.1"
   inkscape:version="0.91 r13725"
   sodipodi:docname="I3_window_manager_logo.svg">
  <metadata
     id="metadata4417">
    <rdf:RDF>
      <cc:Work
         rdf:about="">
        <dc:format>image/svg+xml</dc:format>
        <dc:type
           rdf:resource="http://purl.org/dc/dcmitype/StillImage" />
        <dc:title></dc:title>
      </cc:Work>
    </rdf:RDF>
  </metadata>
  <defs
     id="defs4415" />
  <sodipodi:namedview
     pagecolor="#ffffff"
     bordercolor="#666666"
     borderopacity="1"
     objecttolerance="10"
     gridtolerance="10"
     guidetolerance="10"
     inkscape:pageopacity="0"
     inkscape:pageshadow="2"
     inkscape:window-width="1153"
     inkscape:window-height="899"
     id="namedview4413"
     showgrid="false"
     fit-margin-top="0"
     fit-margin-left="0"
     fit-margin-right="0"
     fit-margin-bottom="0"
     inkscape:zoom="0.92096825"
     inkscape:cx="195.55171"
     inkscape:cy="168.56916"
     inkscape:window-x="64"
     inkscape:window-y="3"
     inkscape:window-maximized="0"
     inkscape:current-layer="svg4357" />
  <filter
     id="a">
    <feGaussianBlur
       stdDeviation="13.396228"
       id="feGaussianBlur4360" />
  </filter>
  <radialGradient
     id="b"
     cx="351.15485"
     cy="372.06332"
     gradientTransform="matrix(1.1454302,-1.1687051,2.0295327,1.9193266,-889.0626,57.219022)"
     gradientUnits="userSpaceOnUse"
     r="163.57143">
    <stop
       offset="0"
       stop-color="#189fff"
       stop-opacity=".380392"
       id="stop4363" />
    <stop
       offset="1"
       stop-color="#010b2b"
       id="stop4365" />
  </radialGradient>
  <g
     id="g4369"
     transform="translate(-42.85714,-106.6479)">
    <path
       d="m 42.85714,106.6479 322.85715,0 0,308.57144 -322.85715,0 z"
       id="path4547"
       inkscape:connector-curvature="0"
       style="fill:#ffffff" />
    <path
       style="fill:url(#b)"
       inkscape:connector-curvature="0"
       id="path4371"
       d="m 42.85714,106.6479 322.85715,0 0,308.57144 -322.85715,0 z" />
    <path
       style="opacity:0.09583297;fill:#ffffff"
       inkscape:connector-curvature="0"
       id="path4373"
       d="m 43.707165,106.65625 c -1.924412,4.19542 -0.293756,9.91207 -0.796059,14.71602 0.217132,48.00091 0.434263,96.00182 0.651394,144.00273 11.845045,10.47022 28.927257,8.88024 43.590421,10.9124 53.492929,3.44313 107.282979,3.61079 160.606069,-2.44914 34.0261,-3.43502 68.05279,-8.73145 100.89004,-18.4129 8.35969,-2.80704 18.86086,-9.22302 17.06972,-19.34203 0,-43.14236 0,-86.28472 0,-129.42708 -107.3372,0 -214.67439,0 -322.011585,0 z" />
    <g
       style="opacity:0.5;filter:url(#a)"
       id="g4375"
       transform="matrix(0.3387513,-0.3401668,0.3401668,0.3387513,59.228831,277.49214)">
      <path
         style="fill-rule:evenodd"
         inkscape:connector-curvature="0"
         id="path4377"
         d="M 412.75,98.59375 C 396.19379,98.835333 382.96319,112.44354 383.1875,129 c 0,0 -10e-6,87.25107 0,196.3125 0,23.30736 -12.11655,39.13192 -38.21875,53.46875 -26.1022,14.33683 -64.97276,22.875 -103.875,22.875 -38.90224,0 -77.7728,-8.53817 -103.875,-22.875 C 111.11655,364.44442 99,348.61986 99,325.3125 c 0,-54.37333 0.441249,-103.35555 0.65625,-138.875 0.1075,-17.75973 0.177008,-32.11577 0.09375,-42.34375 -0.04163,-5.11399 -0.129499,-9.10767 -0.28125,-12.46875 -0.07588,-1.68054 -0.136902,-3.05581 -0.40625,-5.25 -0.134674,-1.09709 -0.168072,-2.2122 -1,-5.1875 C 97.646536,119.69985 97.275733,117.79087 94.875,113.75 92.474267,109.70913 84.912085,98.999943 69,99 59.653467,98.879464 50.78473,103.12192 45.013008,110.47443 39.241286,117.82694 37.226064,127.44941 39.5625,136.5 c 0.06318,2.03091 0.15684,4.32729 0.1875,8.09375 0.07765,9.5394 0.0133,23.81477 -0.09375,41.5 C 39.442151,221.46421 39,270.62442 39,325.3125 c -10e-7,47.58256 30.913445,84.95437 69.34375,106.0625 38.43031,21.10813 85.6089,30.28125 132.75,30.28125 47.1411,0 94.31969,-9.17312 132.75,-30.28125 38.43031,-21.10813 69.34375,-58.47994 69.34375,-106.0625 -10e-6,-109.06142 0,-196.3125 0,-196.3125 0.10978,-8.10283 -3.06279,-15.9055 -8.79582,-21.63265 -5.73304,-5.72715 -13.53896,-8.891699 -21.64168,-8.7736 z" />
      <path
         style="fill-rule:evenodd"
         inkscape:connector-curvature="0"
         id="path4379"
         d="M 239.5625,99.5 C 223.00629,99.741583 209.77569,113.34979 210,129.90625 L 210,350 c -0.15301,10.81908 5.53126,20.88244 14.87619,26.33663 9.34492,5.45419 20.9027,5.45419 30.24762,0 C 264.46874,370.88244 270.15301,360.81908 270,350 l 0,-220.09375 c 0.10978,-8.10283 -3.06279,-15.9055 -8.79582,-21.63265 -5.73304,-5.72715 -13.53896,-8.891699 -21.64168,-8.7736 z" />
      <g
         style="stroke-width:60;stroke-linecap:round;stroke-linejoin:round"
         id="g4381">
        <path
           inkscape:connector-curvature="0"
           id="path4383"
           transform="translate(0,-10)"
           d="m 100,40 a 30,30 0 1 1 -60,0 30,30 0 1 1 60,0 z" />
        <path
           inkscape:connector-curvature="0"
           id="path4385"
           transform="translate(170,-10)"
           d="m 100,40 a 30,30 0 1 1 -60,0 30,30 0 1 1 60,0 z" />
        <path
           inkscape:connector-curvature="0"
           id="path4387"
           transform="translate(345,-10)"
           d="m 100,40 a 30,30 0 1 1 -60,0 30,30 0 1 1 60,0 z" />
      </g>
    </g>
  </g>
  <g
     style="fill:none;stroke:#000000;stroke-linecap:round"
     id="g4389"
     transform="translate(-42.85714,-106.6479)">
    <path
       inkscape:connector-curvature="0"
       id="path4391"
       d="m 42.85714,106.6479 322.85715,0 0,308.57144 -322.85715,0 z" />
    <path
       inkscape:connector-curvature="0"
       id="path4393"
       d="m 42.85714,106.6479 322.85715,0 0,308.57144 -322.85715,0 z" />
    <path
       inkscape:connector-curvature="0"
       id="path4395"
       d="m 182.85714,106.6479 0,308.57145 z" />
    <path
       inkscape:connector-curvature="0"
       id="path4397"
       d="m 182.41744,207.43363 -139.120598,0 z" />
    <path
       inkscape:connector-curvature="0"
       id="path4399"
       d="m 182.41744,313.43363 -139.120598,0 z" />
  </g>
  <g
     style="fill:#ffffff;fill-rule:evenodd"
     id="g4401"
     transform="translate(-42.85714,-106.6479)">
    <path
       style="opacity:0.87000002"
       inkscape:connector-curvature="0"
       id="path4403"
       d="m 232.58675,170.48705 c -5.52626,5.71371 -5.37908,14.82412 0.32886,20.35634 0,0 29.67992,29.55642 66.779,66.50112 7.92839,7.8954 9.20688,17.37763 5.24164,31.11336 -3.96524,13.73572 -14.22829,29.85051 -27.40648,43.08376 -13.17818,13.23325 -29.25004,23.56341 -42.9691,27.58589 -13.71907,4.02248 -23.20656,2.78354 -31.13495,-5.11186 -18.496,-18.41904 -35.00865,-35.16193 -47.01836,-47.26732 -6.00485,-6.0527 -10.86475,-10.93947 -14.37218,-14.37589 -1.75371,-1.71821 -3.14199,-3.04119 -4.33673,-4.12814 -0.59736,-0.54347 -1.08586,-0.98859 -1.92349,-1.64025 -0.41881,-0.32583 -0.80945,-0.69221 -2.10337,-1.4171 -0.64695,-0.36245 -1.42193,-0.88298 -3.60976,-1.43518 -2.18782,-0.55221 -8.39243,-1.60755 -13.78265,3.80523 -3.20715,3.13855 -4.7683,7.59254 -4.2224,12.04656 0.5459,4.45402 3.13649,8.39915 7.00667,10.67027 0.71225,0.66649 1.52513,1.41253 2.81674,2.67799 3.27129,3.20507 8.1055,8.06276 14.08516,14.09007 11.95933,12.05462 28.53222,28.85811 47.13529,47.38377 16.18601,16.11865 39.37063,18.26267 59.56923,12.34037 20.1986,-5.92231 39.3008,-18.8635 55.26991,-34.89933 15.96911,-16.03584 28.83053,-35.19184 34.66856,-55.41496 5.83803,-20.22312 3.59735,-43.3986 -12.58866,-59.51725 -37.09907,-36.9447 -66.77899,-66.50112 -66.77899,-66.50112 -2.71913,-2.78218 -6.44805,-4.34615 -10.3383,-4.33604 -3.89027,0.0101 -7.61101,1.59343 -10.31564,4.38971 z" />
    <path
       style="opacity:0.87000002"
       inkscape:connector-curvature="0"
       id="path4405"
       d="m 174.22754,229.70669 c -5.52626,5.7137 -5.37909,14.82411 0.32886,20.35633 l 74.86858,74.55705 c 3.62846,3.71702 8.97724,5.1924 13.99818,3.86118 5.02094,-1.33122 8.93615,-5.26279 10.24642,-10.28924 1.31027,-5.02645 -0.18739,-10.36902 -3.91952,-13.98195 l -74.86858,-74.55704 c -2.71913,-2.78219 -6.44805,-4.34615 -10.33831,-4.33605 -3.89026,0.0101 -7.611,1.59343 -10.31563,4.38972 z" />
    <path
       style="opacity:0.87000002"
       inkscape:connector-curvature="0"
       id="path4407"
       transform="matrix(0.3387513,-0.3401668,0.3401668,0.3387513,55.827163,274.10463)"
       d="m 100,40 a 30,30 0 1 1 -60,0 30,30 0 1 1 60,0 z" />
    <path
       style="opacity:0.87000002"
       inkscape:connector-curvature="0"
       id="path4409"
       transform="matrix(0.3387513,-0.3401668,0.3401668,0.3387513,113.41488,216.27627)"
       d="m 100,40 a 30,30 0 1 1 -60,0 30,30 0 1 1 60,0 z" />
    <path
       style="opacity:0.87000002"
       inkscape:connector-curvature="0"
       id="path4411"
       transform="matrix(0.3387513,-0.3401668,0.3401668,0.3387513,172.69636,156.74708)"
       d="m 100,40 a 30,30 0 1 1 -60,0 30,30 0 1 1 60,0 z" />
  </g>
</svg>
