<?xml version="1.0" standalone="no"?>
<!DOCTYPE svg PUBLIC "-//W3C//DTD SVG 20010904//EN"
 "http://www.w3.org/TR/2001/REC-SVG-20010904/DTD/svg10.dtd">
<svg version="1.0" xmlns="http://www.w3.org/2000/svg"
 width="1384.000000pt" height="1384.000000pt" viewBox="0 0 1384.000000 1384.000000"
 preserveAspectRatio="xMidYMid meet">
<metadata>
Created by potrace 1.14, written by Peter Selinger 2001-2017
</metadata>
<g transform="translate(0.000000,1384.000000) scale(0.100000,-0.100000)"
fill="#000000" stroke="none">
<path d="M6510 13759 c-97 -58 -120 -68 -147 -63 -28 4 -33 2 -33 -15 0 -34
-10 -49 -31 -44 -10 3 -19 0 -19 -6 0 -6 -7 -11 -15 -11 -9 0 -26 -6 -38 -14
-30 -19 -67 -29 -67 -19 0 4 17 26 38 48 66 71 67 72 24 69 -46 -3 -150 -38
-166 -57 -32 -38 -42 -39 -102 -10 -33 15 -62 26 -65 25 -9 -2 -131 -15 -151
-16 -10 0 -18 -3 -18 -6 0 -3 -15 -5 -32 -5 -68 -1 -129 -15 -170 -38 -24 -14
-48 -23 -54 -20 -18 6 -24 -23 -15 -72 20 -109 1 -312 -40 -410 -7 -16 -13
-32 -14 -35 0 -3 -9 -20 -18 -37 -19 -36 -32 -41 -41 -18 -9 24 -19 18 -48
-28 -66 -106 -81 -144 -66 -170 6 -11 4 -26 -5 -43 -12 -23 -15 -24 -28 -12
-8 8 -25 21 -38 28 -23 12 -24 11 -18 -19 7 -35 5 -35 -49 6 -17 13 -37 23
-43 23 -7 0 -60 -25 -118 -56 -72 -39 -103 -61 -99 -70 7 -17 11 -18 -54 6
-30 11 -63 20 -73 20 -17 0 -17 -1 -3 -16 9 -8 16 -19 16 -23 0 -6 -168 -33
-289 -46 -44 -5 -49 -12 -17 -24 29 -12 35 -30 9 -29 -20 1 -123 -24 -163 -40
-14 -6 -34 -19 -45 -29 -11 -10 -29 -22 -39 -26 -53 -20 57 -40 132 -24 42 9
41 -5 -3 -39 -19 -14 -35 -29 -35 -33 0 -3 20 -6 45 -5 25 1 48 -2 50 -6 2 -4
-18 -19 -45 -34 -28 -15 -50 -30 -50 -34 0 -4 67 -6 149 -6 l150 1 -16 -23
c-14 -23 -14 -24 21 -41 35 -16 36 -17 16 -28 -12 -6 -44 -13 -72 -14 -28 -1
-70 -11 -93 -22 -32 -15 -60 -19 -116 -18 -41 2 -94 -3 -118 -10 -63 -18 -249
-108 -271 -131 -17 -18 -144 -113 -192 -143 -39 -25 -56 -41 -54 -54 6 -35
-50 -109 -126 -168 -108 -84 -158 -130 -158 -145 0 -16 35 -16 60 -1 24 15 25
15 10 -4 -8 -11 -39 -47 -68 -79 -30 -33 -79 -93 -110 -135 -32 -42 -59 -78
-63 -81 -3 -3 -20 -29 -39 -57 -18 -29 -37 -53 -42 -53 -4 0 -8 -7 -8 -15 0
-8 -4 -15 -10 -15 -5 0 -10 -7 -10 -15 0 -8 -3 -15 -8 -15 -4 0 -18 -20 -32
-45 -14 -25 -28 -45 -33 -45 -4 0 -6 -4 -3 -9 3 -5 -1 -14 -9 -21 -11 -9 -12
-16 -5 -25 7 -9 0 -26 -25 -61 -20 -27 -38 -57 -41 -66 -4 -10 -9 -18 -13 -18
-10 0 -91 -124 -91 -138 0 -16 27 -15 33 1 4 7 6 8 6 1 1 -15 -152 -160 -210
-199 -24 -16 -46 -32 -49 -36 -3 -3 -25 -15 -50 -27 -38 -19 -41 -30 -5 -22 6
1 26 3 46 5 20 1 42 6 48 9 18 11 13 -16 -8 -38 -24 -27 -55 -76 -48 -76 3 0
19 11 34 25 45 40 53 46 53 41 0 -2 13 9 30 25 16 17 35 27 40 24 7 -4 7 -11
2 -18 -12 -16 -70 -184 -76 -222 -8 -49 -19 -80 -30 -87 -7 -4 -12 -48 -13
-105 -3 -157 -3 -158 -83 -413 -68 -218 -82 -273 -104 -400 -3 -14 -5 -25 -6
-25 -1 0 -4 -18 -5 -40 -2 -22 -4 -41 -5 -42 -8 -9 -5 -50 4 -62 12 -15 18
-179 8 -196 -4 -5 -7 -14 -9 -20 -3 -15 -10 -43 -29 -110 -26 -99 -4 -206 61
-283 35 -42 49 -74 47 -107 -2 -44 -4 -127 -3 -149 1 -15 4 -16 16 -6 8 7 15
22 15 33 0 39 8 12 15 -48 4 -33 18 -107 33 -165 20 -84 26 -133 28 -240 1
-109 5 -145 22 -185 24 -60 58 -184 67 -240 3 -22 8 -53 11 -70 3 -16 7 -43 9
-60 2 -16 9 -50 15 -75 7 -25 14 -53 16 -62 8 -34 13 -53 23 -85 5 -18 7 -33
4 -33 -3 0 0 -7 7 -15 7 -8 10 -21 7 -29 -3 -8 -2 -16 3 -18 5 -2 11 -14 13
-28 9 -54 20 -90 26 -90 4 0 17 7 29 16 21 14 23 14 31 -10 6 -13 8 -51 5 -83
-6 -69 -5 -153 1 -163 2 -4 7 -22 10 -41 3 -19 8 -47 11 -62 6 -27 9 -45 18
-107 2 -14 11 -72 20 -130 9 -58 19 -121 21 -140 2 -19 7 -46 9 -60 3 -14 8
-56 11 -95 2 -38 8 -101 12 -140 4 -38 7 -87 7 -107 1 -21 3 -38 6 -38 3 0 5
-12 6 -28 1 -39 13 -133 29 -242 17 -117 22 -140 40 -193 16 -50 68 -218 71
-232 15 -68 20 -92 29 -140 10 -55 27 -160 31 -190 2 -16 6 -46 9 -65 6 -37
10 -71 20 -160 4 -30 11 -77 16 -105 5 -27 12 -66 15 -85 3 -19 10 -43 15 -52
5 -10 11 -75 14 -145 4 -129 10 -183 23 -193 4 -3 15 -17 25 -32 18 -30 40
-38 31 -13 -4 8 -3 23 1 32 6 16 8 16 25 -4 l18 -22 12 32 c6 17 15 41 20 52
4 11 8 23 8 28 1 4 9 21 17 38 15 28 15 34 -2 75 -10 24 -24 44 -30 44 -7 0
-13 10 -13 21 0 21 1 21 26 4 14 -9 35 -25 47 -35 34 -30 41 -24 41 37 1 32 5
64 9 71 5 6 6 12 3 12 -3 0 3 20 14 46 11 25 16 43 11 40 -35 -22 -88 -36
-107 -29 -24 9 -15 23 15 23 24 0 28 3 24 20 -7 26 -25 40 -59 46 -40 7 -43
11 -34 42 5 19 2 36 -11 58 -10 17 -20 52 -20 78 -2 41 2 50 29 75 36 32 41
51 13 51 -17 0 -19 6 -15 47 4 47 -10 103 -26 103 -7 0 -47 58 -59 84 -2 6
-22 37 -43 70 -21 33 -34 62 -29 64 17 6 14 72 -4 72 -8 0 -22 14 -30 31 -14
27 -15 42 -5 107 0 1 9 2 21 2 19 0 18 2 -9 24 -35 30 -38 56 -5 56 13 0 23 3
23 6 0 9 -55 61 -70 66 -9 3 -10 13 -2 40 5 20 8 65 6 100 -3 34 -6 161 -8
280 l-3 217 41 -2 c54 -3 67 -13 63 -45 -2 -15 0 -42 5 -60 5 -17 11 -44 13
-60 2 -15 20 -90 40 -167 20 -77 37 -153 40 -170 2 -16 8 -46 13 -65 6 -19 20
-71 32 -115 62 -231 161 -323 400 -369 14 -3 36 -8 50 -11 14 -4 34 -8 45 -11
11 -2 54 -11 95 -20 113 -24 112 -24 220 -39 227 -32 626 -46 910 -31 152 8
229 13 280 20 97 14 197 17 223 7 28 -11 29 -12 24 -79 -6 -95 -14 -114 -67
-170 -41 -43 -8 -43 78 -2 45 22 84 40 87 40 3 0 1 -9 -5 -19 -17 -34 4 -31
43 4 43 39 46 62 13 97 -32 35 -37 52 -25 90 6 18 12 58 14 88 4 47 47 174 64
190 3 3 19 30 35 60 16 30 35 62 42 71 8 8 14 19 14 22 0 7 74 129 136 224 19
28 45 73 58 100 23 44 30 67 40 128 2 11 7 37 11 59 10 60 12 67 30 136 9 36
19 69 23 74 3 6 7 20 8 32 4 36 41 100 69 118 58 38 192 50 325 31 30 -5 58
-8 61 -7 4 1 15 -8 24 -18 10 -11 15 -20 10 -20 -4 0 -2 -7 5 -15 7 -8 9 -15
5 -15 -4 0 -3 -6 3 -13 30 -36 45 -223 29 -357 -2 -14 -1 -29 1 -33 2 -5 5
-29 6 -55 3 -55 20 -89 75 -160 29 -37 45 -49 59 -45 14 3 22 -4 32 -28 17
-40 56 -79 79 -79 22 0 36 -15 46 -50 8 -24 92 -142 108 -148 4 -2 7 -8 7 -13
0 -5 16 -30 37 -56 42 -56 69 -113 77 -165 5 -35 4 -38 -18 -38 -17 0 -31 -13
-55 -51 -31 -51 -35 -73 -8 -51 11 9 16 7 25 -13 12 -25 51 -41 77 -31 9 3 43
-22 92 -68 117 -110 147 -136 150 -132 2 2 -30 70 -71 152 -41 82 -76 163 -78
179 -4 43 42 65 126 59 33 -2 90 -6 126 -9 278 -20 711 -26 885 -12 164 13
210 17 250 23 22 4 54 8 70 10 58 6 281 45 345 60 14 3 32 7 40 9 8 1 22 5 30
8 8 3 31 9 50 12 52 9 59 10 66 18 4 4 14 7 23 7 9 0 29 7 45 15 15 8 33 15
40 15 6 0 23 11 38 25 15 14 32 25 38 25 5 0 10 3 10 8 0 4 11 19 25 34 22 24
39 54 51 93 16 49 55 197 59 225 3 20 7 45 9 55 2 11 7 47 11 80 4 32 9 68 11
78 2 11 6 47 9 81 3 33 7 73 9 89 2 15 7 55 11 90 4 34 9 71 11 82 6 34 49 62
106 70 29 4 70 16 91 26 20 11 37 15 37 9 0 -19 21 -10 55 25 l35 34 -3 133
c-4 130 4 198 23 198 6 0 10 5 10 11 0 6 16 28 37 49 29 31 40 37 54 29 15 -7
23 -3 40 21 31 41 37 26 35 -79 -2 -73 -6 -94 -26 -127 -22 -35 -25 -51 -27
-154 0 -63 -3 -124 -6 -135 -3 -11 -8 -33 -12 -48 l-8 -29 41 26 c23 14 43 26
44 26 5 0 8 -82 13 -320 4 -199 2 -241 -12 -272 -10 -23 -12 -44 -7 -55 4 -10
9 -72 10 -138 1 -66 5 -131 8 -145 3 -14 7 -47 7 -73 2 -43 5 -49 30 -60 l29
-12 -36 -60 c-20 -33 -56 -75 -81 -94 -41 -32 -45 -38 -39 -69 3 -21 -1 -49
-10 -71 -20 -48 -11 -109 22 -144 l25 -27 -25 -10 c-32 -12 -42 -50 -28 -98 9
-29 9 -41 -4 -59 -8 -13 -19 -21 -24 -18 -5 3 -11 1 -15 -5 -4 -6 6 -10 22
-10 28 -1 28 -1 -20 -45 -53 -49 -54 -48 31 -47 26 0 35 -5 43 -24 14 -39 11
-53 -11 -49 -24 5 -33 -11 -59 -104 -11 -39 -28 -84 -39 -99 -19 -27 -19 -52
-1 -52 5 0 23 14 39 30 24 25 29 37 27 73 -1 30 6 58 23 90 24 44 43 62 39 35
-4 -24 13 -88 22 -82 5 3 9 11 7 17 -1 7 2 35 6 62 3 28 9 68 11 90 3 22 8 58
11 80 4 22 8 56 9 75 2 19 4 35 5 35 2 0 3 13 4 28 2 21 -2 26 -14 22 -30 -12
-34 -10 -36 22 -1 24 3 34 17 38 21 7 31 34 35 95 5 78 11 112 42 235 17 66
33 138 36 160 33 218 50 295 67 295 6 0 10 10 24 55 6 19 48 191 60 245 4 14
9 36 12 50 8 38 9 149 2 210 -17 129 -21 167 -23 203 -3 46 24 102 65 136 16
13 29 30 29 37 0 7 5 14 11 16 5 2 13 23 16 46 4 31 10 42 19 38 18 -7 18 8
-2 45 -21 41 -12 67 14 41 10 -10 22 -27 27 -38 6 -15 10 -10 15 26 10 58 19
123 26 185 6 43 10 71 13 83 1 1 10 -2 20 -8 16 -8 19 -7 17 8 -4 23 13 32 41
21 19 -7 23 -5 23 11 0 11 -7 20 -15 20 -8 0 -15 4 -15 9 0 5 -8 12 -17 14
-10 3 1 5 24 6 l43 1 -23 26 c-12 15 -27 32 -33 38 -21 22 -29 60 -29 136 0
41 -4 102 -9 135 -8 56 -7 59 8 40 8 -11 16 -26 16 -33 0 -17 29 -46 37 -38 4
3 4 6 0 6 -3 0 0 21 7 48 8 26 17 60 21 76 4 21 9 26 14 17 5 -7 6 -22 4 -32
-4 -13 0 -19 11 -19 9 0 16 6 17 13 0 6 2 64 3 127 4 120 12 156 46 192 11 12
20 27 21 32 0 6 3 20 5 31 2 11 4 53 4 94 0 66 2 72 14 55 19 -25 23 -19 30
41 6 49 20 112 49 230 16 60 27 107 34 135 2 8 4 56 5 107 l2 92 24 -22 24
-22 -7 45 c-3 25 -8 56 -10 70 -2 14 -6 45 -10 69 -7 40 -6 43 13 37 18 -6 21
-1 27 41 9 68 10 122 2 167 -5 30 -4 37 5 28 20 -20 28 -13 18 14 -6 14 -10
38 -10 54 0 16 -5 27 -12 26 -7 0 -14 2 -15 7 -8 22 0 38 27 54 29 17 31 20
25 68 -3 27 -7 61 -10 75 -2 13 -7 42 -10 65 -4 22 -9 55 -11 73 -7 46 11 40
25 -10 l13 -42 14 24 c7 14 13 33 14 44 0 14 5 17 24 12 24 -6 24 -6 11 37
-20 62 -36 109 -45 132 -4 11 -13 35 -20 53 -7 17 -17 32 -22 32 -6 0 -8 18
-5 43 3 27 -2 62 -14 100 -11 33 -17 68 -13 82 5 21 -2 35 -42 78 -75 81 -86
97 -125 172 -52 99 -112 245 -105 252 3 3 10 -5 15 -18 8 -20 10 -12 11 39 1
34 2 72 3 85 2 59 -19 175 -41 230 -15 36 -15 48 1 44 6 -1 11 6 10 17 -12
142 -10 137 -52 180 -23 23 -41 47 -41 53 0 6 -7 13 -15 17 -8 3 -15 10 -15
16 0 18 -52 90 -65 90 -14 0 -96 101 -89 111 2 4 13 5 24 2 15 -4 18 -9 10
-18 -8 -10 -5 -15 12 -20 31 -9 56 -19 105 -43 24 -11 45 -17 48 -12 6 10 -34
37 -182 126 -45 27 -81 54 -79 59 1 6 12 14 24 20 23 10 30 25 11 25 -6 0 -24
9 -40 21 -49 35 -13 54 45 24 36 -19 66 -11 61 15 -4 23 14 39 48 42 26 2 26
3 7 20 -11 10 -23 18 -29 18 -5 0 -11 4 -13 8 -1 5 -38 25 -80 45 -42 21 -84
44 -92 53 -20 19 -21 78 -2 93 13 11 84 9 119 -4 9 -4 17 -3 17 3 0 6 -13 13
-30 17 -16 4 -30 10 -30 15 0 5 10 6 23 4 12 -3 43 -8 70 -11 60 -7 63 12 5
27 -80 21 -131 41 -154 59 -13 10 -43 22 -67 25 -37 6 -43 10 -41 29 1 12 3
27 3 34 1 7 11 23 24 37 27 32 68 37 151 20 33 -6 79 -14 102 -17 23 -2 46 -7
53 -11 17 -11 13 15 -5 36 -16 16 -15 18 6 26 19 7 8 14 -77 52 -54 24 -102
47 -107 51 -5 4 21 21 58 38 71 32 84 44 38 36 -84 -14 -236 -25 -264 -17 -15
3 -18 10 -13 26 21 70 11 76 -36 24 l-38 -43 -7 33 c-4 18 -13 32 -21 32 -10
0 -4 16 21 50 20 28 36 52 36 54 0 2 -12 1 -26 -2 -26 -5 -50 -33 -58 -67 -8
-41 -19 -65 -27 -65 -12 0 -31 39 -24 50 3 5 8 30 11 55 4 48 -9 54 -26 11
l-9 -21 -6 21 c-5 15 -12 20 -26 17 -13 -4 -19 0 -19 11 0 22 -5 21 -61 -14
-58 -35 -66 -29 -44 39 3 11 3 21 -2 22 -4 0 -30 3 -57 5 -54 5 -99 25 -130
58 -28 31 -57 44 -83 40 -15 -3 -31 7 -52 32 -29 32 -31 33 -32 12 -1 -13 -1
-29 0 -35 4 -27 -57 -11 -142 36 -48 27 -129 64 -179 81 -82 28 -137 62 -196
117 -7 7 -15 31 -17 54 -6 60 -26 85 -182 227 l-42 38 34 18 34 19 -37 46
c-20 25 -56 66 -79 91 -48 50 -53 72 -23 97 21 18 28 39 10 28 -6 -4 -23 -8
-38 -11 -15 -2 -36 -5 -47 -8 -11 -2 -24 0 -30 4 -5 5 -14 9 -20 10 -28 3 -76
50 -96 92 -12 27 -28 48 -36 48 -7 0 -13 4 -13 8 0 5 -12 15 -27 23 -16 8 -37
22 -47 31 -11 10 -35 21 -53 24 -50 9 -48 21 7 39 28 9 47 21 44 26 -3 6 -8 8
-11 5 -3 -3 -15 0 -27 6 -11 7 -27 13 -34 14 -21 4 -25 12 -17 31 10 23 12 29
14 48 0 8 10 23 22 33 l20 20 -33 19 c-18 11 -59 35 -90 52 -32 18 -58 37 -58
41 0 5 23 19 51 32 48 20 50 22 28 31 -13 5 -35 11 -49 13 -14 2 -36 7 -50 9
-14 3 -34 7 -45 9 -32 6 -157 36 -197 47 -34 9 -36 12 -28 33 7 19 4 28 -12
43 -11 10 -22 17 -24 16 -8 -5 -76 -33 -80 -33 -2 0 -1 6 1 13 10 25 12 78 4
83 -5 3 -9 1 -9 -4 0 -8 -35 -23 -62 -26 -3 -1 -10 -4 -14 -8 -4 -5 -16 -8
-26 -8 -10 0 -18 -4 -18 -10 0 -5 -6 -10 -14 -10 -7 0 -31 -12 -52 -26 -25
-17 -51 -27 -73 -26 -34 2 -54 12 -36 18 21 8 89 55 70 49 -38 -13 -171 -48
-248 -65 -43 -10 -86 -25 -96 -34 -15 -14 -20 -14 -38 -1 -18 13 -24 13 -52
-1 -38 -19 -118 -32 -150 -24 -23 5 -22 7 23 45 27 22 55 46 63 54 11 11 19
12 32 4 14 -9 22 -5 42 20 42 54 43 56 7 52 -30 -3 -85 -12 -127 -20 -33 -6
-94 -36 -174 -84 -73 -43 -210 -108 -432 -203 -38 -17 -75 -35 -82 -40 -12
-10 -28 6 -19 21 3 4 31 28 63 52 32 24 67 52 78 62 20 19 20 19 -10 15 -28
-3 -30 -1 -28 31 1 32 37 76 53 66 3 -2 12 1 20 6 16 10 -57 2 -74 -8 -4 -3
-6 20 -4 51 2 31 4 56 4 55 -1 0 -53 -32 -116 -70z m-30 -3851 c15 -46 27 -84
25 -86 -8 -9 -88 44 -95 62 -10 27 23 126 38 112 3 -3 17 -43 32 -88z m180 54
c0 -4 -7 -17 -15 -29 -14 -20 -13 -22 23 -40 27 -13 54 -44 102 -114 36 -53
72 -103 80 -111 8 -9 22 -25 30 -37 14 -20 37 -31 25 -12 -3 5 5 17 17 26 18
13 20 18 9 22 -26 10 -61 55 -61 79 0 39 27 28 57 -23 15 -27 31 -49 35 -51 4
-2 8 -8 8 -14 0 -11 79 -110 93 -116 4 -2 7 -10 7 -18 0 -8 4 -14 9 -14 14 0
34 -68 27 -95 -7 -26 9 -47 55 -71 16 -8 27 -19 25 -23 -3 -4 6 -19 19 -31 14
-13 25 -29 25 -35 0 -6 5 -16 12 -23 7 -7 11 -29 10 -50 -3 -31 4 -47 38 -90
23 -29 46 -50 51 -46 10 6 1 52 -14 72 -5 6 -6 12 -2 12 4 0 1 7 -6 16 -17 20
-18 119 -1 136 7 7 12 19 12 29 0 18 31 53 73 83 21 15 25 22 16 33 -7 7 -9
16 -6 19 3 3 1 17 -4 31 -5 14 -12 41 -15 60 -5 34 -5 34 27 31 l33 -4 1 -131
c1 -101 -1 -130 -11 -126 -7 2 -15 11 -18 19 -3 9 -11 12 -17 9 -7 -5 -2 -17
13 -34 53 -57 79 -103 103 -178 14 -43 27 -87 29 -98 2 -11 8 -20 14 -20 9 0
72 71 72 83 0 2 -15 2 -34 -1 -41 -7 -44 -1 -53 94 -6 73 -4 75 48 54 10 -3
20 -2 23 4 4 5 -4 13 -16 17 -13 4 -24 5 -25 3 -2 -2 -10 6 -19 19 -13 19 -14
33 -7 75 5 29 8 81 6 115 -2 34 -1 62 1 62 3 0 60 -113 72 -145 4 -11 15 -49
25 -85 19 -70 36 -90 73 -83 26 5 29 0 40 -67 3 -19 8 -46 11 -60 3 -14 7 -45
10 -70 10 -85 20 -59 17 46 -3 95 -2 105 13 102 12 -2 26 -29 42 -83 14 -44
31 -93 38 -110 7 -16 21 -57 30 -90 24 -80 39 -94 31 -30 -3 28 -8 61 -11 75
-3 14 -6 41 -7 60 0 19 -5 42 -9 51 -6 11 -3 21 7 30 13 11 22 6 61 -34 32
-34 43 -52 38 -65 -6 -16 -7 -16 -19 1 -7 9 -21 17 -31 17 -13 0 -5 -11 26
-39 24 -21 62 -55 83 -75 69 -62 79 -43 13 22 -37 37 -44 49 -44 83 0 29 4 39
16 40 13 0 13 2 1 6 -47 19 -96 121 -80 167 5 15 7 15 26 -2 25 -24 64 -45 64
-36 0 4 -50 56 -112 116 -61 60 -108 111 -104 115 3 4 21 -1 40 -9 47 -23 57
-9 40 55 -29 110 -13 122 75 55 177 -136 298 -250 461 -434 29 -34 80 -71 80
-59 0 11 -34 70 -42 73 -5 2 -8 10 -8 18 0 8 -4 14 -10 14 -5 0 -10 5 -10 10
0 11 -34 62 -57 88 -7 7 -20 26 -30 42 -9 17 -23 30 -30 30 -7 0 -13 5 -13 10
0 6 -6 10 -13 10 -7 0 -22 8 -33 18 -10 10 -26 21 -35 24 -30 12 -152 195
-146 220 1 6 -11 18 -27 26 -33 17 -20 32 29 32 41 0 19 19 -29 25 -49 7 -76
22 -76 43 0 15 7 18 45 15 44 -3 45 -3 39 22 -5 20 -2 26 21 35 32 12 36 12
32 2 -1 -5 12 -20 28 -34 17 -15 41 -48 54 -75 14 -26 29 -54 34 -60 12 -16
30 -6 20 10 -10 17 -13 97 -3 97 9 0 60 -21 142 -59 26 -11 60 -21 76 -21 22
0 43 -13 80 -49 47 -46 91 -111 76 -111 -4 0 -1 -7 6 -15 9 -11 9 -15 1 -15
-9 0 -9 -5 0 -21 6 -12 9 -30 6 -40 -5 -20 17 -27 28 -9 24 38 27 -18 10 -170
-17 -161 -17 -174 0 -157 16 17 22 34 30 97 10 79 16 93 31 79 22 -23 36 -134
23 -194 -3 -14 1 -20 13 -20 30 0 41 -22 44 -87 2 -35 6 -74 9 -88 3 -14 8
-41 11 -60 2 -19 7 -46 10 -60 3 -14 7 -56 9 -95 8 -109 68 -224 79 -150 1 10
11 19 20 21 28 4 29 10 6 54 -14 27 -26 40 -35 36 -15 -5 -28 8 -31 34 -1 8
-7 40 -12 70 -6 30 -9 56 -7 58 1 2 10 -4 18 -13 15 -14 16 -5 11 107 -3 68
-7 146 -7 175 -1 28 -5 55 -9 59 -5 4 -8 3 -8 -3 0 -6 -8 -13 -18 -16 -16 -3
-19 1 -18 27 1 17 -2 41 -6 53 -5 17 -4 21 7 17 8 -3 14 -9 13 -12 -4 -38 25
-68 56 -56 13 5 13 11 -5 46 -11 22 -17 38 -12 36 59 -29 69 -39 71 -71 1 -1
5 -14 11 -29 10 -26 9 -28 -14 -28 -31 0 -33 -19 -2 -22 12 0 27 -2 33 -2 17
-2 93 -66 106 -89 6 -12 13 -34 14 -50 2 -15 15 -38 29 -50 26 -22 33 -39 34
-84 1 -14 17 -34 45 -55 51 -38 62 -59 59 -108 -8 -122 7 -159 66 -160 44 0
30 -18 -17 -22 -17 -1 -32 -7 -32 -12 0 -6 19 -27 42 -48 23 -20 39 -40 36
-43 -14 -15 -66 -11 -96 6 -49 28 -53 25 -45 -38 3 -32 7 -68 7 -80 1 -15 7
-23 19 -23 12 0 16 5 11 13 -5 9 -4 9 7 -1 11 -10 11 -17 -3 -40 -10 -15 -25
-26 -33 -25 -13 1 -15 -5 -10 -25 11 -49 66 -152 81 -152 7 0 41 -9 75 -21 41
-14 71 -19 95 -15 50 10 43 26 -21 42 -26 7 -85 31 -91 37 -7 6 41 87 52 87 2
0 4 -8 2 -17 -2 -10 2 -18 7 -19 6 0 24 -5 40 -9 l30 -9 -30 -6 -30 -7 29 -12
c16 -6 36 -9 46 -6 14 4 17 -1 16 -27 -1 -21 3 -32 12 -31 15 4 16 -13 1 -23
-18 -11 11 -23 35 -15 35 11 69 7 72 -9 12 -61 17 -78 30 -105 24 -50 92 -121
104 -109 8 8 5 22 -10 49 -21 38 -15 65 16 65 7 0 16 6 20 13 4 6 4 9 -1 5 -4
-4 -16 -3 -26 3 -19 9 -19 11 -2 34 19 26 52 34 54 13 0 -7 2 -20 4 -28 2 -8
7 -28 10 -45 4 -16 8 -34 9 -40 15 -59 16 -86 7 -104 -14 -25 -10 -26 30 -5
42 21 45 13 9 -27 -37 -39 -38 -45 -17 -129 26 -103 28 -130 7 -127 -10 2 -25
9 -34 16 -9 7 -16 10 -16 6 0 -4 -6 -2 -13 4 -11 8 -16 5 -25 -13 -12 -27 0
-41 71 -85 33 -20 37 -27 35 -57 -2 -27 4 -41 25 -60 15 -14 27 -28 28 -32 0
-4 2 -23 4 -42 1 -19 3 -41 4 -48 2 -19 51 -62 72 -62 10 0 21 -5 25 -12 4 -7
3 -8 -4 -4 -6 3 -16 -2 -21 -13 -6 -11 -8 -21 -3 -23 8 -3 69 -125 74 -148 2
-9 -3 -14 -11 -12 -12 3 -12 0 -1 -12 7 -9 21 -16 31 -16 39 0 25 -96 -23
-154 -16 -20 -53 -48 -82 -62 -29 -14 -65 -37 -79 -50 -22 -20 -54 -32 -226
-80 -8 -3 -12 -13 -9 -28 l5 -23 -126 0 c-69 0 -182 -1 -251 -2 -122 -1 -275
5 -315 13 -11 3 -28 5 -37 5 -10 1 -53 36 -96 79 -86 86 -140 126 -223 164
-97 45 -172 58 -354 60 -128 2 -191 -5 -332 -37 -102 -23 -161 -25 -173 -5 -3
6 -19 -6 -36 -27 -18 -23 -53 -47 -93 -65 -35 -16 -65 -37 -68 -46 -3 -9 -50
-52 -104 -96 -73 -57 -103 -76 -111 -68 -11 11 -21 3 -69 -56 l-18 -24 -28 20
c-48 34 -68 61 -55 74 8 8 6 21 -9 50 l-20 39 41 71 40 70 -30 -4 c-36 -5 -39
8 -5 24 33 15 22 29 -21 23 l-35 -4 18 32 c10 18 21 34 26 35 4 2 7 10 7 18 0
8 15 30 33 48 32 33 79 53 127 54 13 1 29 7 35 14 6 7 31 13 60 13 28 1 66 9
86 18 20 10 48 16 62 13 19 -3 32 3 51 25 14 16 26 33 26 38 0 13 37 35 95 57
28 10 52 19 55 20 3 0 12 3 20 7 102 39 119 37 81 -7 -15 -18 -15 -18 19 -10
19 4 43 8 53 8 9 0 17 3 17 6 0 3 8 6 18 7 9 1 61 13 116 27 113 30 119 31
114 14 -3 -7 -10 -13 -16 -13 -7 0 -12 -4 -12 -10 0 -6 38 -9 93 -9 50 1 86
-1 80 -3 -7 -3 -13 -11 -13 -19 0 -12 5 -12 32 2 19 10 43 14 62 10 72 -13 90
-18 117 -31 39 -21 66 -19 74 5 3 11 14 20 23 21 11 0 12 3 5 6 -7 2 -13 10
-13 17 0 18 87 9 125 -12 16 -10 37 -32 45 -50 8 -17 19 -32 23 -32 4 0 27 -9
49 -20 23 -11 45 -20 49 -20 3 0 24 -8 45 -17 22 -9 42 -16 47 -15 11 3 8 -13
-5 -26 -18 -18 17 -16 47 4 23 15 27 13 126 -57 56 -40 110 -74 120 -76 10 -1
24 -4 31 -5 6 -2 13 4 15 12 3 15 -37 40 -64 40 -7 0 -13 5 -13 10 0 6 -6 10
-14 10 -7 0 -19 6 -25 14 -10 12 -7 14 19 11 17 -2 36 -7 43 -11 9 -6 9 -4 0
7 -7 9 -31 22 -54 29 -42 14 -99 59 -99 79 0 7 12 5 33 -6 17 -9 34 -18 37
-18 3 -1 33 -15 67 -33 91 -47 91 -46 53 43 -31 72 -33 83 -11 90 20 6 20 6 0
53 -11 26 -28 55 -37 66 -13 13 -4 11 33 -9 28 -15 57 -34 66 -41 8 -8 19 -14
23 -14 4 0 20 -8 34 -19 45 -31 122 -72 122 -64 -1 4 -44 37 -96 73 -52 36
-107 75 -122 87 -15 13 -30 23 -34 23 -4 0 -13 6 -20 13 -42 40 -99 59 -68 22
22 -26 5 -27 -25 -1 -15 13 -40 30 -54 38 -14 7 -28 16 -31 19 -3 3 -27 21
-55 39 -27 19 -51 37 -53 42 -2 4 -10 8 -18 8 -7 0 -16 10 -19 23 -4 13 -21
31 -39 41 -21 11 -43 37 -62 74 -16 31 -35 62 -42 70 -6 7 -17 22 -22 33 -14
25 -30 25 -23 -1 3 -11 0 -20 -6 -20 -6 0 -11 3 -11 8 0 9 -81 45 -87 38 -3
-2 11 -15 31 -28 20 -13 36 -26 36 -30 0 -7 -19 -5 -35 3 -5 3 -29 11 -52 19
-39 12 -45 11 -63 -5 -17 -16 -24 -16 -44 -5 -15 7 -32 9 -43 5 -31 -13 -47
-16 -84 -15 -19 0 -61 -11 -92 -25 -39 -18 -78 -27 -129 -30 -40 -2 -77 -4
-81 -4 -5 -1 -6 -14 -2 -31 3 -16 2 -37 -4 -47 -6 -10 -11 -13 -11 -7 0 18
-40 25 -46 9 -6 -14 -51 -14 -84 -1 -8 3 -27 8 -42 11 -16 3 -39 7 -53 10 -37
8 -30 -3 15 -22 43 -19 55 -44 18 -38 -13 2 -51 6 -85 9 l-63 6 0 -30 c0 -22
-5 -30 -17 -31 -10 0 -27 -3 -38 -6 -32 -9 -96 -4 -111 8 -11 9 -14 7 -14 -8
0 -17 -9 -21 -57 -27 -76 -9 -89 -17 -73 -45 11 -21 10 -22 -27 -15 -21 3 -40
6 -43 6 -22 0 -28 -4 -23 -20 4 -15 -9 -20 -91 -37 -80 -15 -94 -21 -84 -32
13 -16 -3 -33 -31 -33 -8 0 -12 -2 -9 -5 7 -7 49 -17 71 -17 9 1 17 -3 17 -8
0 -7 -87 -6 -115 1 -14 3 -65 -22 -65 -33 0 -4 5 -8 12 -8 17 0 3 -11 -19 -14
-13 -2 -18 -12 -19 -34 -1 -43 -9 -49 -74 -52 l-25 -1 28 -17 c35 -22 34 -28
-5 -37 -18 -4 -35 -9 -38 -10 -3 -1 -20 -6 -37 -10 -33 -7 -46 -25 -19 -25 17
0 38 -24 29 -34 -4 -3 -8 -14 -9 -24 -16 -107 -33 -154 -55 -147 -13 4 -23 -7
-43 -49 -14 -30 -26 -60 -26 -65 0 -6 -13 -24 -28 -41 -23 -23 -28 -37 -26
-70 1 -23 -4 -60 -11 -83 -16 -52 -56 -139 -62 -133 -2 2 -16 -7 -30 -20 -14
-13 -29 -22 -32 -19 -4 2 -25 0 -47 -5 -22 -5 -56 -10 -76 -12 -20 -1 -34 -6
-32 -10 3 -5 8 -6 12 -4 4 2 15 -2 25 -9 23 -17 8 -21 -67 -21 -41 1 -61 5
-64 15 -3 8 -1 11 4 8 5 -3 20 1 34 8 23 12 23 13 -16 13 -21 0 -50 3 -64 6
-14 3 -42 7 -63 9 -21 2 -40 7 -43 10 -7 7 -23 76 -30 130 -2 23 -9 58 -14 77
-5 20 -12 59 -14 88 -3 29 -10 65 -16 80 -7 15 -26 61 -44 102 -38 89 -58 103
-133 95 -29 -4 -53 -4 -53 -2 0 3 15 35 34 70 l35 65 -24 6 c-14 4 -33 16 -44
28 l-20 21 34 32 34 33 -55 17 c-29 9 -54 23 -54 30 0 10 -23 13 -100 12
l-101 -2 7 25 c3 14 7 30 8 35 1 6 7 20 14 32 17 31 16 32 -25 22 -40 -9 -97
-11 -75 -2 29 12 8 22 -37 16 -46 -5 -50 -4 -67 23 -10 16 -19 30 -20 32 -1 2
-16 -4 -33 -13 -27 -13 -31 -14 -31 -1 0 8 8 20 18 25 9 6 15 11 12 11 -3 1
-14 4 -25 7 -53 13 -86 14 -100 3 -19 -16 -51 -5 -37 13 20 24 -4 35 -88 40
-92 6 -117 11 -168 34 -41 18 -122 24 -162 13 -32 -9 -41 5 -18 28 6 6 10 13
7 15 -5 5 -187 66 -214 72 -11 3 -53 15 -93 29 l-73 24 -52 -19 c-28 -11 -53
-19 -55 -19 -2 0 -2 -8 -1 -17 2 -29 -1 -47 -7 -40 -4 3 -19 0 -35 -9 -26 -13
-29 -13 -29 1 0 8 14 27 30 42 30 26 38 47 21 57 -4 3 -23 -8 -41 -24 -18 -16
-51 -42 -74 -57 -22 -15 -47 -34 -55 -41 -7 -7 -16 -10 -20 -7 -3 4 11 22 32
41 59 54 40 80 -21 27 -17 -16 -43 -37 -58 -48 -15 -11 -32 -24 -38 -30 -6 -5
-27 -22 -46 -36 -19 -15 -51 -41 -70 -58 -19 -17 -38 -31 -41 -31 -3 0 -17 -9
-30 -21 -13 -12 -41 -35 -61 -52 -21 -17 -38 -35 -38 -39 0 -13 19 -9 41 10
11 9 33 27 47 39 43 36 49 26 10 -14 -117 -123 -137 -146 -133 -154 3 -4 11
-6 18 -3 8 3 20 -11 31 -33 29 -61 28 -72 -7 -93 -40 -24 -64 -41 -88 -60 -18
-14 -18 -17 11 -62 28 -44 32 -47 56 -38 14 6 51 27 82 48 31 20 59 37 62 37
3 1 14 6 25 12 11 5 36 13 56 17 25 4 46 19 73 50 47 56 90 77 142 70 21 -3
55 -7 74 -9 19 -2 45 -6 58 -9 13 -3 20 -1 17 5 -4 5 -3 9 2 10 16 1 271 9
408 13 101 3 148 9 170 20 44 23 69 20 143 -21 115 -63 176 -91 207 -96 52 -8
95 -19 95 -26 0 -3 14 -21 31 -40 25 -29 28 -36 14 -43 -23 -13 -19 -22 23
-44 45 -25 67 -21 52 7 -10 18 -8 19 27 14 21 -3 49 -8 61 -11 13 -3 42 -7 64
-10 21 -3 47 -7 56 -8 31 -5 24 -26 -10 -27 -18 -1 -37 -1 -41 0 -4 1 -3 -8 3
-20 16 -30 5 -35 -35 -16 -41 20 -47 8 -7 -15 68 -41 100 -78 112 -130 6 -28
8 -53 6 -56 -10 -9 15 -42 32 -42 9 0 24 -5 32 -10 13 -8 11 -13 -12 -34 -16
-16 -29 -41 -33 -67 -5 -28 -13 -43 -25 -46 -12 -3 -17 -11 -13 -21 4 -14 3
-14 -5 -3 -5 8 -9 30 -7 50 3 35 1 37 -78 86 -44 28 -98 60 -120 71 -23 13
-35 24 -28 28 6 4 16 4 21 1 18 -11 11 14 -12 40 -11 13 -37 30 -57 36 -50 16
-104 41 -118 55 -14 14 -29 17 -158 38 -90 14 -440 15 -495 1 -14 -3 -36 -8
-50 -11 -14 -3 -50 -12 -80 -22 -30 -9 -57 -17 -60 -17 -3 -1 -18 -7 -35 -14
-16 -7 -32 -13 -35 -13 -16 -1 -129 -71 -218 -135 -57 -41 -122 -81 -145 -90
-58 -21 -307 -21 -307 0 0 5 10 17 23 27 36 30 15 31 -33 2 -25 -15 -52 -29
-60 -31 -33 -8 -212 -3 -222 7 -6 6 -10 23 -10 39 0 33 -12 43 -45 37 -29 -6
-52 6 -128 66 -81 65 -94 89 -89 170 6 100 9 118 40 220 15 52 38 107 50 123
16 18 23 40 22 68 0 48 8 59 26 34 12 -17 14 -15 21 21 5 21 10 46 12 54 2 8
4 119 6 245 l2 230 27 30 c25 27 26 31 11 47 -15 17 -15 18 0 18 11 0 14 5 10
15 -4 12 0 15 21 11 14 -2 30 -7 36 -11 5 -3 7 0 4 9 -3 8 -12 17 -19 20 -7 2
-16 18 -20 35 -5 24 0 43 24 85 36 62 39 76 11 51 -22 -20 -27 -7 -10 25 7 12
16 17 27 13 13 -5 14 -3 5 13 -9 15 -6 28 14 61 13 23 21 49 18 57 -5 12 0 16
19 16 25 0 44 24 27 35 -10 6 -8 19 8 58 15 36 15 48 -3 71 -19 25 -3 46 33
46 31 0 18 17 -17 22 -23 3 -22 4 13 41 36 36 66 48 66 27 0 -6 12 -15 26 -20
14 -6 23 -14 19 -19 -15 -24 18 -17 74 16 l62 37 -31 24 c-34 27 -34 28 -10
151 12 66 12 74 1 66 -5 -3 -12 -2 -14 2 -10 16 19 40 78 63 33 13 65 26 70
30 28 19 45 17 74 -9 28 -25 29 -29 14 -43 -14 -15 -13 -18 16 -32 20 -11 31
-24 31 -38 0 -12 11 -36 25 -54 14 -18 25 -35 25 -38 0 -9 34 -46 42 -46 11 0
1 38 -28 96 -25 51 -31 86 -22 124 2 8 -4 14 -12 15 -17 0 -18 12 -7 68 6 27
13 37 27 37 10 0 22 5 25 10 4 6 10 8 14 5 5 -2 16 4 26 15 21 23 45 26 45 5
0 -20 -22 -65 -32 -65 -16 0 -8 -40 11 -50 31 -16 51 -12 51 10 0 26 34 27 61
1 l21 -19 -21 -11 c-30 -16 -26 -26 15 -46 38 -18 50 -13 56 20 2 10 20 28 41
39 32 17 44 18 77 9 22 -5 40 -7 40 -3 0 8 -51 34 -62 32 -5 -1 -8 2 -8 7 0 5
-13 12 -30 16 -16 4 -30 10 -30 15 0 5 19 23 41 41 64 50 209 252 194 267 -10
11 102 162 120 162 3 0 -1 -16 -9 -35 -16 -36 -8 -46 14 -19 23 27 47 35 74
24 23 -8 39 -1 41 20 6 47 42 72 62 44 12 -16 13 -16 13 5 0 12 7 36 16 53 13
25 14 38 5 74 -13 52 -13 54 -1 54 5 0 29 -29 52 -65 43 -65 55 -73 87 -56 12
7 25 5 42 -4 50 -29 72 -36 82 -26 5 5 15 7 23 4 21 -8 43 47 33 82 -12 41 -7
50 30 53 38 3 39 -2 5 -33 l-26 -24 36 6 c33 5 36 3 53 -31 9 -20 21 -35 27
-33 5 2 20 21 33 43 33 56 35 58 66 72 26 11 27 14 13 28 -16 15 -21 34 -10
34 17 0 36 -36 40 -77 9 -89 53 -208 70 -191 7 8 12 68 4 68 -4 0 -7 6 -7 13
0 6 -3 24 -6 39 -3 15 1 34 8 45 13 17 15 17 32 0 13 -12 17 -32 17 -72 -1
-62 10 -70 30 -23 12 29 46 49 46 27 0 -10 33 -12 43 -3 3 4 0 18 -7 33 -8 14
-12 42 -9 61 4 39 -15 120 -28 120 -12 0 -11 43 2 77 9 24 12 26 20 11 8 -14
13 -42 18 -95 1 -18 21 -16 21 2 0 8 5 15 10 15 6 0 9 3 8 8 -1 4 4 20 11 36
9 22 15 26 23 18 15 -15 49 -143 43 -159 -2 -7 0 -13 6 -13 6 0 6 -7 -1 -20
-7 -13 -7 -20 -1 -20 7 0 7 -8 2 -22 -9 -25 -3 -43 34 -103 14 -22 30 -50 35
-62 5 -13 12 -23 15 -23 6 0 5 6 -23 130 -10 47 -18 103 -17 125 2 50 14 105
24 105 3 0 31 16 60 35 l54 36 35 -19 c41 -21 42 -22 78 -122 15 -41 31 -79
35 -84 19 -21 19 5 1 77 l-18 75 32 -4 33 -4 -15 37 c-9 20 -18 46 -20 57 -7
28 -11 175 -6 181 7 7 77 -36 101 -63 42 -48 60 -122 29 -122 -5 0 -7 -4 -4
-8 3 -5 -1 -9 -9 -10 -8 -1 -22 -3 -30 -4 -22 -2 -7 -18 38 -38 40 -18 63 -18
52 0 -12 20 13 17 36 -4 l24 -23 12 26 c8 19 12 21 12 8 1 -16 3 -16 31 -2 43
22 62 19 100 -20 19 -19 41 -35 48 -35 6 0 12 -4 12 -8 0 -10 60 -45 67 -39 6
7 -74 87 -87 87 -6 0 -10 3 -10 8 -1 4 -22 22 -48 41 -49 35 -117 120 -147
184 -18 39 -17 106 4 130 11 14 51 20 51 9z m426 -190 c26 -17 38 -61 38 -142
1 -82 2 -85 23 -82 17 2 24 -3 29 -25 4 -15 9 -32 13 -38 3 -5 6 -12 7 -15 0
-3 5 -16 11 -29 13 -33 26 -10 13 24 -5 14 -12 40 -15 58 -4 18 -10 50 -15 72
-5 22 -11 54 -15 72 -3 18 -9 43 -15 57 -11 30 -3 37 35 30 31 -6 44 -17 65
-59 14 -28 32 -54 56 -79 32 -34 47 -144 23 -172 -6 -8 -8 -14 -4 -14 4 0 3
-6 -2 -12 -6 -7 -16 -30 -22 -50 -13 -40 -34 -49 -49 -22 -5 9 -20 18 -33 19
-38 4 -39 4 -39 16 0 6 -13 30 -30 54 -16 24 -30 47 -30 52 0 4 -14 26 -30 47
-17 22 -30 46 -30 53 0 7 -4 13 -9 13 -5 0 -11 8 -15 18 -3 9 -15 31 -26 47
-11 17 -23 37 -27 45 -4 8 -13 22 -21 30 -13 13 -11 16 14 27 33 14 83 16 100
5z m-2357 -582 c-2 -30 -11 -77 -22 -103 -21 -51 -82 -120 -100 -114 -6 2 -16
25 -23 51 -15 57 -5 102 31 140 14 15 25 29 25 32 0 3 6 11 13 18 6 7 21 25
32 40 19 25 21 25 33 9 8 -11 12 -40 11 -73z m-590 -2350 c-30 -15 -57 -25
-61 -23 -5 2 -8 0 -8 -5 0 -8 -30 -21 -48 -22 -1 0 -26 -17 -56 -39 -31 -23
-69 -42 -92 -45 -44 -6 -47 -12 40 59 87 69 238 133 265 112 10 -9 2 -17 -40
-37z m4331 -274 c95 -20 107 -23 152 -44 21 -9 38 -20 38 -24 0 -5 6 -8 14 -8
7 0 19 -7 27 -16 10 -13 10 -17 0 -24 -8 -5 -9 -10 -3 -14 6 -3 12 0 15 6 4
12 9 8 56 -48 5 -7 11 -20 13 -30 2 -16 -2 -18 -27 -16 -16 2 -46 7 -65 12
-35 9 -68 16 -125 27 -16 3 -34 7 -40 8 -44 13 -53 18 -48 31 6 16 -18 19 -45
5 -9 -5 -25 -12 -34 -15 -10 -3 -18 -15 -18 -26 0 -17 -7 -20 -47 -21 -255 -6
-382 -24 -440 -63 -20 -14 -40 -23 -44 -20 -11 6 1 34 14 34 7 0 8 3 1 10 -9
9 -43 15 -96 19 -23 1 -23 16 1 38 16 15 182 104 201 108 3 1 22 9 43 18 51
22 125 41 201 53 16 2 30 5 32 7 5 4 199 -1 224 -7z m-3312 -47 c28 -7 52 -15
52 -19 0 -3 9 -6 19 -7 20 -2 131 -68 131 -78 0 -3 -9 -1 -19 5 -25 13 -27 13
-45 -5 -14 -14 -19 -14 -48 1 -41 21 -133 26 -173 10 -73 -30 -248 -1 -294 48
-22 24 -22 24 -3 30 24 8 55 15 97 23 17 2 32 7 34 9 9 8 198 -4 249 -17z
m3317 -290 c-33 -5 -98 -11 -144 -14 -47 -3 -96 -7 -110 -10 -14 -2 -64 -7
-110 -10 -47 -4 -105 -8 -130 -11 -181 -16 -194 -17 -189 -3 5 15 11 15 163
24 55 3 123 7 150 10 28 3 111 7 185 11 74 3 137 8 139 10 2 2 27 3 55 3 l51
-2 -60 -8z m1100 -33 c52 -5 144 -24 156 -32 27 -16 -11 -24 -97 -19 -52 3
-94 4 -94 1 0 -16 14 -36 27 -36 8 0 11 5 8 10 -9 15 -2 13 64 -21 36 -18 61
-38 62 -48 2 -34 11 -76 18 -86 5 -5 12 -23 16 -40 12 -45 12 -45 14 -47 9
-13 20 -297 12 -313 -3 -5 -6 -23 -7 -40 -2 -38 -12 -112 -26 -190 -6 -33 -12
-69 -14 -80 -29 -183 -75 -294 -139 -337 -22 -15 -50 -29 -62 -32 -12 -4 -35
-11 -50 -18 -33 -13 -48 -18 -58 -18 -3 0 -21 -6 -40 -14 -20 -9 -37 -15 -40
-16 -3 0 -10 -2 -17 -5 -43 -14 -92 -23 -100 -19 -4 3 -8 1 -8 -4 0 -5 -6 -9
-12 -10 -7 0 -24 -3 -38 -6 -84 -16 -149 -27 -180 -32 -19 -2 -42 -6 -50 -9
-14 -4 -83 -13 -155 -21 -180 -19 -923 -26 -1045 -10 -36 5 -73 9 -82 10 -10
0 -18 4 -18 9 0 4 -4 5 -10 2 -16 -10 -84 13 -128 42 -43 30 -100 102 -134
173 -7 14 -17 28 -22 32 -11 7 -13 21 -20 133 -6 89 5 126 22 77 6 -17 8 -33
5 -36 -4 -3 1 -6 10 -6 13 0 14 6 5 36 -5 20 -7 38 -4 41 3 3 1 13 -3 22 -5 9
-11 39 -15 68 l-5 51 30 -8 c30 -9 30 -9 24 23 -14 63 -55 134 -115 197 -69
72 -102 130 -119 209 -6 30 -16 60 -22 67 -12 15 10 94 37 132 17 25 81 61
110 62 10 0 45 3 77 6 56 6 57 5 57 -20 0 -14 -5 -26 -10 -26 -6 0 -9 -3 -8
-7 1 -5 -3 -24 -10 -43 -17 -52 -22 -90 -11 -90 5 0 9 -6 9 -13 0 -16 35 -49
68 -66 26 -14 45 -18 112 -27 25 -3 72 -12 105 -21 36 -9 79 -13 108 -9 26 3
47 2 47 -2 0 -13 93 -8 97 6 3 6 -2 12 -10 12 -8 0 -44 16 -78 36 -83 47 -98
49 -221 38 -105 -9 -136 4 -145 60 -3 22 -5 43 -4 46 3 6 24 18 138 74 51 25
122 64 158 86 62 40 95 51 163 53 17 1 32 4 32 8 0 4 9 5 21 2 17 -5 19 -11
13 -32 -4 -14 -8 -54 -10 -88 -7 -163 158 -329 343 -345 18 -2 93 34 93 44 0
4 5 8 11 8 20 0 89 64 124 115 38 54 63 130 60 180 -1 17 -5 59 -9 96 l-7 65
55 0 c52 -1 58 -3 105 -50 48 -48 120 -167 116 -193 -2 -7 -3 -19 -4 -27 0 -8
-20 -32 -42 -53 -23 -21 -49 -47 -58 -57 -45 -53 -72 -77 -134 -116 -37 -23
-72 -51 -78 -62 -8 -15 -19 -19 -54 -17 -51 3 -63 -4 -45 -27 11 -12 24 -14
59 -9 25 4 64 5 86 4 68 -4 227 -3 296 3 36 4 86 2 111 -3 37 -8 51 -6 88 11
76 37 100 51 100 60 0 5 20 21 46 36 32 19 51 40 66 71 11 24 18 47 14 50 -4
4 12 25 34 48 l40 41 -45 67 c-38 56 -44 71 -35 87 7 14 7 20 0 20 -23 0 -8
30 23 45 40 19 72 43 66 49 -2 3 -54 7 -114 11 -60 3 -113 9 -118 14 -4 4 11
7 33 7 23 -1 45 1 50 4 9 6 274 3 335 -4z m-4627 -5 c12 -1 22 -5 22 -11 0 -5
-14 -8 -32 -5 -18 2 -55 7 -82 10 -72 7 -68 14 6 10 34 -2 73 -4 86 -4z m183
-16 c47 -3 119 -8 160 -10 74 -5 136 -10 259 -21 74 -6 212 -15 283 -17 31 -1
47 -6 47 -15 0 -10 -18 -12 -82 -7 -46 4 -101 8 -123 10 -96 7 -213 17 -255
21 -47 5 -85 8 -230 20 -47 3 -98 8 -115 9 -16 2 -45 4 -62 4 -18 1 -33 5 -33
10 0 5 15 7 33 5 17 -1 70 -5 118 -9z m-1258 -36 c65 0 117 -4 117 -8 0 -4
-24 -7 -52 -8 -29 0 -91 -3 -138 -7 -47 -3 -123 -8 -170 -11 -47 -3 -93 -8
-102 -11 -10 -3 -18 -1 -18 5 0 6 10 12 23 13 35 2 41 3 52 9 10 6 62 11 123
12 17 1 32 5 32 10 0 4 4 6 8 3 5 -3 61 -6 125 -7z m792 -9 c17 0 25 -25 30
-87 8 -103 35 -155 122 -238 17 -16 35 -42 38 -57 7 -29 3 -31 -55 -31 -68 1
-196 59 -291 134 -61 48 -90 131 -53 152 8 4 14 17 14 27 0 11 19 40 43 64 38
40 47 45 80 41 20 -1 40 2 44 8 5 8 8 8 11 -1 2 -7 10 -12 17 -12z m840 -61
c59 -28 115 -80 115 -107 0 -23 -38 -63 -79 -83 -14 -7 -33 -18 -41 -25 -17
-13 -203 -84 -239 -90 -32 -7 -35 -7 -43 -4 -5 1 -12 4 -18 5 -5 1 -12 3 -14
4 -1 0 18 23 44 50 60 63 96 124 105 181 13 79 14 83 27 92 19 13 91 1 143
-23z m408 -37 c1 0 18 -3 37 -7 83 -16 102 -62 104 -254 0 -65 -2 -76 -23 -92
-13 -10 -41 -24 -64 -30 -49 -13 -167 -94 -167 -114 0 -4 -9 -18 -20 -32 -20
-25 -44 -95 -55 -158 -2 -16 -8 -41 -11 -55 -19 -78 -31 -150 -24 -150 5 0 24
63 35 120 3 17 39 80 45 80 11 0 89 -124 104 -167 7 -21 13 -64 12 -97 -1 -58
-1 -58 -43 -80 -50 -25 -57 -38 -42 -81 11 -29 9 -36 -21 -80 -18 -26 -41 -50
-51 -52 -11 -3 -19 -8 -19 -12 0 -6 -39 -25 -76 -35 -29 -9 -74 -15 -161 -21
-39 -3 -82 -8 -94 -10 -13 -3 -48 -7 -79 -10 -31 -3 -66 -7 -80 -10 -125 -24
-572 -24 -755 -1 -150 20 -186 25 -219 32 -71 15 -146 32 -171 38 -5 2 -17 6
-25 9 -8 3 -26 8 -40 10 -14 3 -41 10 -60 16 -19 5 -65 18 -102 28 -37 11 -71
22 -74 26 -4 4 -17 7 -28 7 -28 0 -105 28 -120 43 -24 24 -47 81 -100 244 -24
72 -24 73 -5 111 11 21 28 48 39 59 10 12 16 24 13 27 -4 3 0 6 8 6 8 0 3 10
-14 26 l-28 26 -20 -20 c-10 -12 -19 -26 -19 -32 0 -13 -30 -13 -31 0 -2 14
-4 22 -12 45 -3 11 -9 40 -12 65 -3 25 -8 59 -11 75 -7 44 -13 273 -7 294 4
17 61 51 86 51 7 0 38 18 71 40 68 47 127 55 146 20 6 -11 17 -20 25 -20 17 0
20 -31 4 -47 -8 -8 -8 -13 0 -17 6 -4 11 -3 11 2 0 5 11 14 25 20 22 10 27 7
62 -36 21 -26 44 -53 51 -60 21 -23 30 -46 26 -70 -2 -13 0 -21 5 -17 13 8 23
-12 28 -54 5 -44 6 -45 32 -32 17 10 27 7 60 -17 41 -30 43 -42 9 -42 -10 0
-18 -6 -18 -13 0 -8 18 -13 56 -14 44 -1 54 2 50 13 -21 51 -21 50 0 32 13
-12 24 -14 34 -8 8 5 11 10 7 10 -5 0 0 13 9 29 19 33 24 32 97 -11 58 -34 69
-35 110 -5 36 26 66 31 105 15 43 -16 137 -13 164 6 22 16 23 16 26 -3 5 -31
29 -46 48 -30 11 9 47 14 105 16 90 1 199 25 199 44 0 5 -6 9 -12 8 -46 -6
-72 6 -82 36 -5 18 -1 20 47 21 28 0 93 3 142 6 50 3 100 2 113 -3 21 -8 22
-10 7 -33 -9 -14 -34 -29 -61 -36 -26 -8 -63 -29 -85 -50 l-40 -37 98 -1 c85
0 104 3 141 23 55 31 54 14 -3 -37 -25 -23 -43 -43 -40 -46 6 -7 75 30 75 40
0 5 7 8 15 8 8 0 15 4 15 9 0 5 7 11 15 15 9 3 15 0 15 -9 0 -8 -6 -15 -14
-15 -8 0 -16 -7 -20 -15 -9 -24 29 -18 97 15 34 17 78 44 97 60 32 27 33 29
13 30 -27 0 -30 16 -5 24 13 4 18 16 18 39 -1 25 -7 35 -29 46 -33 16 -28 23
33 41 48 14 151 54 186 72 31 15 47 55 49 123 3 99 1 95 35 85 17 -5 31 -9 33
-8z m-438 -323 c27 -13 35 -39 10 -30 -40 14 -78 -1 -40 -15 8 -4 13 -10 10
-15 -5 -7 -72 11 -98 28 -12 8 -17 9 -37 12 -21 2 -8 19 23 28 43 13 95 10
132 -8z m-520 -59 c3 -5 2 -10 -4 -10 -5 0 -13 5 -16 10 -3 6 -2 10 4 10 5 0
13 -4 16 -10z"/>
<path d="M8962 8371 c-30 -25 -28 -36 15 -76 46 -43 50 -43 81 -3 12 15 11 22
-9 50 -38 54 -53 59 -87 29z"/>
<path d="M9931 7214 c0 -11 3 -14 6 -6 3 7 2 16 -1 19 -3 4 -6 -2 -5 -13z"/>
<path d="M10152 3908 c-6 -40 -8 -76 -4 -80 4 -4 19 -10 34 -13 24 -6 28 -4
33 22 4 15 8 34 11 41 3 12 -46 102 -57 102 -3 0 -11 -33 -17 -72z"/>
<path d="M7308 3965 c-1 -1 -21 -6 -43 -9 -109 -16 -155 -34 -277 -109 -93
-57 -95 -69 -10 -62 77 6 116 13 152 25 21 7 96 25 191 46 40 9 54 12 54 14 0
1 9 3 20 5 98 17 129 29 122 48 -4 14 -48 26 -122 33 -33 3 -65 7 -72 9 -6 2
-13 2 -15 0z"/>
<path d="M5696 3925 c-38 -13 -53 -22 -45 -28 12 -10 132 -62 179 -78 80 -28
93 -30 243 -36 112 -5 137 -3 137 8 -1 13 -116 74 -132 71 -5 -1 -8 3 -8 10 0
6 -3 8 -7 5 -3 -4 -11 -3 -17 2 -12 9 -70 29 -105 36 -13 2 -32 7 -44 11 -39
12 -163 12 -201 -1z"/>
<path d="M7710 3841 c-42 -44 -119 -101 -137 -101 -7 0 -13 -5 -13 -11 0 -5
-4 -7 -10 -4 -5 3 -10 1 -10 -4 0 -6 -3 -10 -7 -9 -5 0 -15 -2 -23 -5 -8 -4
-58 -22 -110 -41 -92 -33 -94 -35 -66 -45 66 -26 144 -14 234 36 102 56 130
82 164 153 39 80 33 89 -22 31z"/>
<path d="M6827 3735 c-46 -53 -120 -84 -212 -89 -22 -1 -45 -5 -51 -9 -6 -3
-14 -4 -18 0 -8 9 -86 10 -86 2 0 -4 -10 -5 -22 -2 -19 3 -18 2 5 -12 63 -37
148 -40 242 -10 106 33 124 44 158 98 28 43 16 60 -16 22z"/>
<path d="M5542 3713 c24 -57 109 -114 191 -129 72 -12 166 -11 171 2 5 13 -35
44 -63 49 -9 2 -16 4 -16 5 0 1 -22 3 -50 6 -100 9 -158 28 -194 64 -38 38
-55 39 -39 3z"/>
<path d="M3375 3550 c-4 -6 -4 -23 -1 -38 4 -15 8 -38 11 -52 4 -21 10 -50 21
-92 1 -5 2 -11 3 -15 1 -5 8 7 16 25 8 17 19 32 25 32 6 0 9 -4 6 -9 -3 -5 0
-14 8 -20 11 -9 16 -5 25 20 14 41 15 39 -14 39 -21 0 -25 5 -26 33 0 24 -9
39 -34 60 -21 17 -36 24 -40 17z"/>
<path d="M10296 3518 c-3 -13 -6 -33 -6 -45 0 -14 -6 -23 -16 -23 -8 0 -13 -4
-10 -9 3 -5 -1 -14 -9 -21 -12 -10 -32 -64 -81 -229 -7 -23 -15 -6 -18 38 -2
23 -5 44 -8 47 -7 6 -58 -17 -58 -27 0 -4 -9 -10 -19 -14 -11 -3 -22 -12 -24
-19 -9 -23 20 -117 40 -131 10 -7 19 -23 19 -34 1 -12 2 -28 3 -36 0 -8 12
-17 26 -21 15 -4 22 -11 18 -18 -4 -6 -8 -15 -10 -21 -16 -72 -38 -145 -42
-145 -3 0 -17 23 -30 50 -28 56 -45 58 -26 3 12 -33 11 -41 -5 -63 -24 -33
-14 -48 30 -45 19 1 42 -1 51 -6 22 -11 35 1 43 41 7 39 14 71 21 98 25 98 87
351 89 367 2 11 7 43 11 70 4 28 9 53 10 56 6 9 17 159 12 159 -3 0 -7 -10
-11 -22z"/>
<path d="M3419 3263 c5 -10 16 -34 24 -53 8 -19 25 -57 37 -84 12 -28 24 -79
27 -115 5 -66 21 -139 43 -196 6 -16 12 -32 12 -35 4 -37 97 -231 148 -310 12
-20 62 -122 88 -181 11 -25 30 -58 43 -73 13 -15 24 -31 25 -34 0 -10 68 -146
74 -152 3 -3 18 -25 32 -50 14 -25 48 -75 75 -112 26 -36 55 -76 63 -88 8 -12
22 -30 30 -40 8 -10 22 -27 30 -37 8 -10 26 -34 40 -53 24 -34 44 -60 65 -84
6 -6 30 -38 55 -71 25 -33 62 -78 82 -101 21 -22 58 -62 83 -89 25 -28 53 -70
62 -95 22 -60 26 -65 71 -78 37 -11 40 -15 61 -84 33 -109 39 -121 71 -151 16
-16 29 -32 27 -36 -5 -17 68 -105 108 -130 23 -14 40 -32 38 -38 -4 -12 156
-123 176 -123 5 0 11 -3 13 -7 2 -5 31 -22 66 -40 54 -28 67 -30 93 -21 46 16
96 3 133 -34 18 -18 36 -43 40 -56 10 -30 28 -28 20 3 -3 14 -3 25 1 25 12 0
34 -33 35 -51 0 -15 50 -70 50 -55 0 5 7 3 15 -4 8 -7 15 -10 15 -7 0 4 19 -1
42 -9 23 -8 73 -17 112 -20 85 -6 129 -20 176 -54 52 -39 90 -61 90 -54 0 4 6
2 13 -4 19 -15 116 -42 154 -42 22 0 42 -8 58 -24 23 -23 59 -39 115 -50 14
-3 48 -11 75 -16 60 -13 80 -16 165 -24 36 -4 77 -9 90 -11 14 -3 76 -8 138
-10 133 -6 179 3 277 56 39 20 84 40 100 43 17 3 41 9 55 12 14 3 36 7 49 10
14 3 28 7 33 10 4 3 16 7 25 9 10 2 51 11 90 19 40 9 105 18 144 21 39 3 92 8
118 11 84 11 141 -2 141 -32 0 -28 56 -40 69 -15 13 23 2 37 -38 54 l-33 14
58 47 c33 25 64 50 69 54 36 29 64 41 90 39 26 -2 30 2 33 26 4 29 30 49 75
54 30 3 97 34 118 55 60 57 148 108 188 108 4 0 38 22 75 49 37 28 86 57 109
65 53 20 137 36 137 26 0 -4 9 -10 19 -13 13 -3 18 0 15 8 -3 7 -1 16 4 19 9
5 133 19 225 25 19 1 24 21 4 21 -11 0 -47 106 -47 139 0 7 22 11 53 11 44 1
56 5 81 30 25 26 27 30 12 36 -13 5 -16 14 -10 38 9 43 19 53 62 60 73 13 74
14 49 40 -12 13 -26 21 -30 19 -5 -3 -7 5 -5 18 3 20 8 24 36 21 28 -3 32 0
32 20 0 18 -2 20 -10 8 -5 -8 -12 -11 -17 -7 -11 11 10 40 33 44 62 13 71 12
80 -7 18 -38 36 -6 38 65 2 55 6 70 23 83 12 10 23 26 25 37 2 12 20 28 45 40
43 20 55 35 28 35 -24 0 -17 23 15 50 17 14 30 30 30 37 0 7 5 13 12 13 6 0 9
3 5 6 -3 4 5 28 18 55 14 27 25 53 25 60 0 6 9 24 21 40 11 16 17 29 14 29 -3
0 4 15 17 32 37 52 86 136 94 161 4 12 29 46 56 76 51 56 64 79 73 134 4 17
11 37 16 44 6 7 8 17 4 22 -3 6 13 29 36 52 38 38 41 44 35 81 -5 31 -2 47 14
73 12 20 18 40 14 51 -4 11 -4 16 0 12 11 -10 34 14 29 30 -3 7 0 19 7 27 7 8
9 15 6 15 -4 0 0 7 8 16 9 8 14 20 11 25 -4 5 -1 9 4 9 23 0 9 26 -24 47 l-35
23 -15 -24 c-9 -13 -18 -37 -19 -52 -2 -15 -21 -47 -42 -72 -52 -59 -56 -68
-48 -95 6 -20 8 -18 19 18 9 26 14 33 15 20 4 -38 -2 -58 -28 -98 -15 -22 -33
-50 -39 -62 -10 -17 -21 -22 -42 -20 -26 2 -28 0 -25 -25 4 -22 0 -29 -18 -33
-13 -4 -29 -20 -37 -39 -8 -18 -17 -35 -20 -38 -4 -3 -12 -16 -19 -30 -15 -32
-35 -64 -44 -70 -3 -3 -9 -17 -13 -30 -4 -16 -18 -31 -38 -40 -37 -16 -85 -63
-97 -94 -4 -12 -7 -40 -4 -60 4 -47 -14 -85 -58 -120 -18 -14 -38 -31 -45 -36
-7 -6 -14 -10 -17 -10 -2 0 -28 -16 -57 -36 -35 -23 -61 -34 -76 -31 -20 4
-23 0 -24 -27 -1 -17 -2 -42 -3 -56 -1 -20 5 -27 32 -35 32 -9 43 -21 20 -22
-23 -1 -67 -11 -79 -18 -5 -4 -8 -13 -5 -21 3 -8 1 -14 -4 -14 -19 0 -25 -4
-60 -41 -19 -21 -54 -57 -77 -82 -32 -34 -49 -44 -72 -43 -37 2 -50 13 -25 22
37 14 44 24 32 50 -11 24 -15 25 -96 22 -46 -2 -86 -6 -89 -10 -4 -8 19 -12
45 -9 28 4 9 -9 -28 -19 -55 -15 -50 -30 9 -30 l50 0 -15 -27 c-7 -16 -14 -33
-14 -40 0 -6 -12 -21 -27 -33 -22 -17 -35 -20 -63 -14 -67 13 -76 12 -125 -21
l-48 -33 -18 21 c-17 21 -19 21 -48 5 -26 -14 -31 -15 -31 -3 0 8 -4 15 -8 15
-5 0 -14 10 -19 22 -11 23 -11 23 -24 -7 -7 -16 -13 -33 -13 -37 -1 -3 -4 -10
-8 -14 -5 -4 -8 -15 -8 -25 0 -11 -10 -20 -29 -24 -23 -5 -36 -20 -65 -75 -20
-38 -40 -72 -45 -74 -4 -3 -17 1 -27 9 -27 20 -32 19 -39 -15 -5 -23 -18 -36
-53 -54 -26 -13 -58 -27 -72 -31 -14 -4 -34 -16 -45 -26 -21 -18 -21 -18 -55
17 -24 25 -35 32 -39 23 -2 -8 -12 -24 -21 -36 -15 -19 -19 -20 -37 -8 -27 19
-57 1 -30 -19 9 -7 24 -37 33 -66 14 -49 14 -53 -3 -66 -25 -19 -32 -17 -26 6
3 11 2 28 -2 37 -6 16 -8 16 -25 -5 -14 -17 -17 -29 -10 -52 13 -45 -9 -102
-43 -111 -23 -6 -45 4 -46 21 0 14 -14 40 -21 40 -8 0 -23 -39 -21 -53 1 -5
-7 -6 -18 -2 -12 3 -40 -4 -70 -20 -63 -31 -73 -31 -65 -1 5 21 3 23 -20 19
-23 -5 -26 -10 -26 -44 0 -21 -4 -40 -9 -43 -14 -9 -116 20 -117 33 -1 6 -2
22 -3 36 -2 42 -28 30 -37 -18 -4 -23 -7 -45 -6 -49 3 -12 -16 -9 -20 2 -2 6
-21 13 -43 17 l-39 6 33 -42 c18 -23 30 -45 27 -49 -10 -9 -81 30 -82 46 -1 6
-2 17 -3 24 -1 16 -15 1 -39 -45 -18 -34 -21 -36 -35 -22 -17 16 -43 20 -51 7
-3 -5 7 -20 22 -33 l27 -24 -23 -3 c-20 -3 -23 -9 -22 -40 1 -20 1 -41 1 -47
-3 -14 -31 67 -31 88 0 9 -6 17 -14 17 -18 0 -39 -26 -34 -42 4 -12 -14 -38
-25 -38 -3 0 -11 23 -18 50 -14 55 -16 57 -45 35 -21 -16 -38 -20 -30 -6 3 5
-1 14 -9 21 -11 10 -18 9 -31 -5 -15 -15 -18 -15 -37 6 -18 20 -21 20 -29 4
-6 -9 -11 -23 -12 -30 -5 -36 -28 -46 -105 -44 -72 1 -110 -6 -121 -22 -9 -12
-88 -17 -99 -6 -6 6 -12 9 -14 6 -2 -2 -16 -20 -31 -40 -19 -27 -32 -36 -46
-32 -26 7 -25 15 5 47 l26 28 -26 19 c-13 11 -29 18 -33 15 -5 -3 -7 5 -5 17
6 29 -16 48 -56 49 -17 1 -31 2 -31 4 0 1 4 14 10 28 6 16 6 27 0 31 -6 4 -10
3 -10 -2 0 -4 -22 -32 -48 -62 -45 -51 -50 -54 -83 -47 -20 3 -44 12 -54 20
-20 14 -26 58 -14 92 10 29 1 36 -25 22 -11 -7 -23 -13 -26 -13 -3 -1 -18 -7
-33 -13 -16 -7 -32 -12 -36 -12 -4 0 -7 27 -6 60 0 33 -3 60 -6 60 -4 0 -14
-19 -22 -42 -12 -36 -18 -43 -38 -40 -123 16 -133 20 -92 48 l28 19 -40 5
c-37 5 -40 8 -40 35 0 22 -4 29 -15 27 -8 -2 -24 -6 -34 -8 -11 -2 -22 -8 -25
-13 -18 -27 -47 -61 -52 -61 -4 0 -5 8 -3 18 2 9 0 23 -5 31 -8 12 -12 12 -26
-2 -20 -20 -32 -21 -49 -4 -25 25 -37 58 -30 80 5 12 9 24 9 27 1 3 5 13 10
23 12 28 -4 34 -21 8 -9 -12 -20 -19 -24 -14 -17 18 -80 142 -80 157 0 8 -24
29 -52 45 -29 16 -58 34 -65 40 -7 6 -17 11 -23 11 -5 0 -10 4 -10 9 0 5 -8
12 -17 15 -17 6 -59 41 -143 120 -19 18 -115 117 -214 219 -154 161 -185 188
-226 202 -71 24 -89 44 -101 114 -11 60 -40 104 -80 120 -9 3 -42 37 -72 74
-31 37 -57 67 -59 65 -2 -2 -18 8 -36 20 -18 13 -39 21 -47 18 -18 -6 -58 60
-75 123 l-11 43 -20 -21 c-11 -11 -24 -21 -30 -21 -6 0 -6 -7 1 -19 14 -27 13
-30 -10 -24 -11 3 -20 9 -20 14 0 5 -6 9 -13 9 -19 0 -117 99 -117 119 0 5 -7
14 -16 22 -14 12 -14 14 2 26 28 20 36 17 96 -43 l56 -56 16 29 c18 37 16 144
-5 169 -8 9 -13 18 -11 18 1 1 -2 15 -8 31 -6 18 -26 39 -49 52 -35 20 -40 21
-52 7 -10 -12 -14 -12 -20 -2 -4 7 -5 15 -1 18 16 12 43 70 32 70 -7 0 -9 17
-7 44 4 33 1 46 -10 50 -9 4 -17 -1 -20 -14 -10 -37 -25 -21 -18 18 7 46 -7
88 -34 97 -25 8 -51 75 -30 75 6 0 8 4 4 10 -4 6 -15 5 -30 -2 -18 -8 -28 -8
-38 1 -8 6 -31 9 -51 7 -35 -5 -36 -4 -37 27 -1 18 -1 35 0 39 1 9 -80 80 -85
75 -7 -7 26 -129 38 -144 5 -7 8 -18 6 -25 -4 -12 -67 46 -70 66 -4 28 -7 66
-11 120 -3 42 -9 61 -21 68 -16 9 -16 11 0 29 18 20 15 22 -29 19 -26 -1 -28
1 -24 27 8 49 26 85 38 77 16 -9 2 46 -15 64 -7 7 -36 15 -65 18 -47 4 -51 3
-42 -13z"/>
<path d="M7991 2889 c-11 -12 -23 -35 -26 -51 -7 -32 -59 -88 -81 -88 -8 0
-14 -4 -14 -9 0 -35 -313 -29 -389 7 -22 11 -46 16 -57 12 -29 -11 -108 -3
-149 14 -21 9 -52 16 -69 16 -33 0 -96 -33 -96 -50 0 -13 -29 -27 -71 -34 -20
-3 -48 -10 -63 -15 -14 -6 -26 -8 -26 -5 0 4 -6 2 -12 -3 -7 -5 -50 -25 -96
-43 -45 -18 -85 -36 -88 -41 -3 -5 -10 -6 -16 -2 -20 12 -78 10 -78 -3 0 -7 6
-15 13 -18 6 -3 -6 -4 -28 -1 -56 7 -68 9 -82 18 -7 5 -13 6 -13 3 0 -3 -20 3
-45 14 -25 11 -45 17 -45 14 0 -2 -9 0 -21 6 -11 7 -59 13 -106 14 -69 3 -90
7 -111 25 -99 79 -139 89 -222 58 -52 -19 -142 -34 -255 -42 -44 -3 -94 -9
-110 -14 -37 -10 -50 -5 -151 62 -79 53 -81 54 -110 39 -16 -8 -31 -18 -34
-21 -11 -13 -70 -51 -79 -51 -5 0 -11 -3 -13 -7 -1 -5 -35 -30 -74 -56 -87
-58 -182 -149 -209 -199 -19 -37 -19 -39 -1 -72 10 -18 28 -38 41 -44 21 -10
23 -9 20 9 -2 10 -7 24 -10 29 -3 6 -3 10 2 11 4 0 29 2 54 4 58 4 101 26 144
73 33 37 35 38 102 36 79 -1 114 -13 137 -46 15 -21 23 -23 93 -21 66 2 78 0
90 -17 17 -24 33 -26 33 -5 0 19 9 19 34 0 26 -20 42 -19 25 1 -11 14 -8 15
31 9 25 -4 48 -9 52 -11 4 -3 19 6 33 20 21 21 31 56 26 89 -1 4 29 22 65 39
64 30 73 31 193 31 124 0 286 -9 327 -17 38 -8 129 -19 154 -19 32 0 163 14
170 18 6 4 53 11 125 20 57 7 79 11 115 20 57 15 245 14 289 -1 33 -11 51 -12
76 -4 40 13 59 6 74 -27 11 -24 8 -37 -7 -38 -4 -1 -27 -11 -52 -24 -42 -22
-43 -24 -22 -32 19 -7 21 -11 10 -23 -7 -8 -16 -12 -21 -9 -12 7 -20 -26 -10
-40 6 -6 13 -22 15 -34 5 -19 3 -21 -18 -13 -20 8 -24 6 -24 -9 0 -14 10 -20
43 -24 23 -3 54 -8 69 -11 18 -4 32 0 44 11 9 10 22 18 28 20 6 1 24 5 40 8
152 31 476 190 476 234 0 12 10 14 50 12 14 -1 36 7 49 18 27 23 31 24 83 12
27 -6 40 -5 48 4 13 16 52 10 86 -12 42 -27 114 -20 114 11 0 26 -61 105 -90
115 -17 5 -30 8 -30 5 0 -3 -11 6 -25 20 -14 14 -25 28 -25 32 0 3 -9 19 -20
34 -18 26 -23 27 -50 17 -27 -10 -32 -9 -46 11 -18 25 -39 29 -48 7 -9 -23
-34 -18 -66 15 -35 36 -43 37 -69 9z"/>
<path d="M9185 1900 c-3 -5 -14 -10 -25 -10 -19 0 -27 -20 -36 -94 -4 -42 -3
-46 31 -71 36 -28 47 -49 20 -39 -20 8 -19 -13 1 -24 18 -10 51 -5 72 11 15
12 17 71 1 62 -5 -4 -24 -9 -40 -12 -27 -4 -29 -2 -25 19 3 13 8 46 11 73 3
28 8 57 11 67 6 19 -11 34 -21 18z"/>
</g>
</svg>
